<svg xmlns="http://www.w3.org/2000/svg" xmlns:xlink="http://www.w3.org/1999/xlink" width="40" zoomAndPan="magnify" viewBox="0 0 30 30.000001" height="40" preserveAspectRatio="xMidYMid meet" version="1.0"><defs><clipPath id="864ee46938"><path d="M 4.664062 2.902344 L 24.988281 2.902344 L 24.988281 26.128906 L 4.664062 26.128906 Z M 4.664062 2.902344 " clip-rule="nonzero"/></clipPath><clipPath id="3d38e00871"><path d="M 5 3 L 24.988281 3 L 24.988281 26 L 5 26 Z M 5 3 " clip-rule="nonzero"/></clipPath><clipPath id="844ac141ce"><path d="M 5 3 L 24.988281 3 L 24.988281 26 L 5 26 Z M 5 3 " clip-rule="nonzero"/></clipPath><clipPath id="a2927c071f"><path d="M 19 0 L 29.515625 0 L 29.515625 11.613281 L 19 11.613281 Z M 19 0 " clip-rule="nonzero"/></clipPath><clipPath id="346f0b32f3"><path d="M 18.6875 0 L 29.515625 0 L 29.515625 11.613281 L 18.6875 11.613281 Z M 18.6875 0 " clip-rule="nonzero"/></clipPath><clipPath id="95fcb9e9de"><path d="M 19 0 L 29.515625 0 L 29.515625 11.613281 L 19 11.613281 Z M 19 0 " clip-rule="nonzero"/></clipPath><clipPath id="2fd274c844"><path d="M 19 0 L 29.515625 0 L 29.515625 11.613281 L 19 11.613281 Z M 19 0 " clip-rule="nonzero"/></clipPath><clipPath id="87817ad24b"><path d="M 0.484375 17.417969 L 11.371094 17.417969 L 11.371094 29 L 0.484375 29 Z M 0.484375 17.417969 " clip-rule="nonzero"/></clipPath><clipPath id="6d8db5076a"><path d="M 0.484375 17.417969 L 11.371094 17.417969 L 11.371094 29.03125 L 0.484375 29.03125 Z M 0.484375 17.417969 " clip-rule="nonzero"/></clipPath><clipPath id="558a58162a"><path d="M 0.484375 17.417969 L 11.371094 17.417969 L 11.371094 29 L 0.484375 29 Z M 0.484375 17.417969 " clip-rule="nonzero"/></clipPath><clipPath id="7836f43249"><path d="M 0.484375 17.417969 L 11.371094 17.417969 L 11.371094 29 L 0.484375 29 Z M 0.484375 17.417969 " clip-rule="nonzero"/></clipPath></defs><g clip-path="url(#864ee46938)"><path fill="#ffffff" d="M 14.964844 4.042969 L 14.824219 3.964844 L 14.671875 4.054688 C 14.722656 4.035156 14.777344 4.023438 14.832031 4.023438 C 14.878906 4.023438 14.921875 4.03125 14.964844 4.042969 M 14.519531 4.140625 L 13.261719 4.863281 C 13.339844 4.894531 13.410156 4.945312 13.464844 5.011719 C 13.519531 5.082031 13.554688 5.164062 13.570312 5.246094 L 14.460938 4.199219 C 14.476562 4.175781 14.496094 4.15625 14.519531 4.140625 M 15.175781 4.164062 C 15.1875 4.175781 15.195312 4.1875 15.207031 4.199219 L 16.113281 5.261719 C 16.125 5.179688 16.160156 5.097656 16.214844 5.03125 C 16.273438 4.960938 16.34375 4.910156 16.421875 4.878906 Z M 5.886719 9.105469 L 5.652344 9.242188 L 5.652344 9.511719 C 5.675781 9.492188 5.699219 9.472656 5.730469 9.457031 C 5.789062 9.425781 5.855469 9.402344 5.925781 9.398438 C 5.894531 9.328125 5.878906 9.253906 5.878906 9.175781 C 5.882812 9.152344 5.882812 9.128906 5.886719 9.105469 M 23.773438 9.109375 C 23.777344 9.132812 23.777344 9.15625 23.78125 9.179688 C 23.78125 9.261719 23.765625 9.339844 23.734375 9.410156 C 23.796875 9.414062 23.863281 9.433594 23.921875 9.46875 C 23.949219 9.484375 23.976562 9.5 24 9.519531 L 24 9.242188 Z M 7.324219 9.21875 L 10.847656 7.191406 L 8.480469 9.980469 Z M 21.1875 9.980469 L 18.832031 7.210938 L 22.335938 9.222656 Z M 10.535156 10.351562 L 14.832031 5.292969 C 15.722656 6.339844 17.976562 8.992188 19.132812 10.351562 Z M 8.96875 10.9375 L 8.945312 10.964844 C 8.859375 11.070312 8.734375 11.128906 8.609375 11.136719 C 8.648438 11.234375 8.660156 11.34375 8.636719 11.449219 C 8.671875 11.4375 8.710938 11.425781 8.753906 11.421875 C 8.886719 11.410156 9.019531 11.453125 9.121094 11.542969 C 9.128906 11.503906 9.144531 11.464844 9.164062 11.429688 C 9.1875 11.382812 9.21875 11.34375 9.253906 11.308594 C 9.148438 11.261719 9.058594 11.175781 9.007812 11.0625 C 8.988281 11.019531 8.976562 10.980469 8.96875 10.9375 M 20.695312 10.9375 C 20.691406 10.980469 20.675781 11.019531 20.660156 11.0625 C 20.621094 11.140625 20.566406 11.207031 20.5 11.257812 C 20.5625 11.300781 20.617188 11.359375 20.652344 11.429688 C 20.6875 11.488281 20.707031 11.554688 20.714844 11.621094 C 20.792969 11.585938 20.882812 11.566406 20.972656 11.578125 C 21.007812 11.578125 21.046875 11.585938 21.082031 11.601562 L 21.050781 11.519531 C 21.003906 11.390625 21.007812 11.253906 21.058594 11.136719 C 20.933594 11.128906 20.808594 11.070312 20.71875 10.964844 Z M 22.113281 11.539062 L 23.195312 10.828125 L 23.195312 14.402344 Z M 6.457031 14.441406 L 6.457031 10.820312 L 7.550781 11.539062 Z M 24 17.5 C 23.9375 17.550781 23.863281 17.589844 23.777344 17.605469 C 23.691406 17.621094 23.609375 17.613281 23.53125 17.585938 L 24 18.832031 Z M 5.652344 17.539062 L 5.652344 18.871094 L 6.121094 17.625 C 6.042969 17.652344 5.960938 17.660156 5.875 17.644531 C 5.789062 17.628906 5.714844 17.589844 5.652344 17.539062 M 18.453125 13.621094 C 18.304688 13.566406 18.140625 13.578125 18.003906 13.671875 C 17.8125 13.800781 17.730469 14.046875 17.8125 14.265625 C 17.8125 14.265625 17.84375 14.355469 17.914062 14.503906 C 17.914062 14.503906 15.824219 17.929688 14.910156 19.425781 C 14.910156 19.425781 11.707031 14.179688 10.484375 12.175781 L 19.335938 12.175781 Z M 19.652344 15.113281 L 20.820312 13.199219 L 22.992188 18.957031 L 16.734375 19.890625 L 19.003906 16.167969 C 19.136719 16.289062 19.324219 16.324219 19.492188 16.265625 C 19.683594 16.195312 19.8125 16.019531 19.820312 15.816406 C 19.820312 15.816406 19.851562 15.5625 19.652344 15.113281 M 10.464844 15.601562 C 10.273438 15.792969 10.082031 16.035156 9.90625 16.339844 C 9.800781 16.527344 9.824219 16.769531 9.972656 16.929688 C 10.121094 17.09375 10.355469 17.136719 10.550781 17.039062 C 10.550781 17.039062 10.792969 16.921875 11.117188 16.667969 L 13.097656 19.914062 C 11.382812 19.660156 8.046875 19.164062 6.675781 18.957031 L 8.902344 13.046875 Z M 5.652344 19.726562 L 5.652344 19.792969 L 6.84375 20.476562 C 6.832031 20.398438 6.835938 20.3125 6.863281 20.230469 C 6.890625 20.148438 6.941406 20.078125 7 20.019531 L 5.921875 19.859375 C 5.820312 19.84375 5.726562 19.796875 5.652344 19.726562 M 24 19.738281 C 23.929688 19.804688 23.839844 19.847656 23.746094 19.859375 L 22.648438 20.023438 C 22.707031 20.078125 22.753906 20.152344 22.78125 20.234375 C 22.808594 20.316406 22.816406 20.402344 22.800781 20.480469 L 24 19.792969 Z M 15.289062 20.699219 C 15.195312 20.8125 15.058594 20.878906 14.910156 20.878906 C 14.769531 20.878906 14.640625 20.820312 14.546875 20.71875 C 14.53125 20.761719 14.511719 20.804688 14.488281 20.84375 C 14.464844 20.878906 14.4375 20.910156 14.40625 20.9375 L 14.511719 20.953125 C 14.648438 20.976562 14.765625 21.050781 14.84375 21.160156 C 14.917969 21.050781 15.035156 20.972656 15.175781 20.949219 L 15.425781 20.914062 C 15.394531 20.886719 15.367188 20.855469 15.34375 20.816406 C 15.320312 20.78125 15.300781 20.738281 15.289062 20.699219 M 15.738281 21.882812 L 19.773438 21.28125 L 15.738281 23.601562 Z M 10.15625 21.320312 C 10.511719 21.601562 10.917969 21.875 11.304688 22.035156 C 11.523438 22.128906 11.769531 22.050781 11.902344 21.851562 C 11.953125 21.773438 11.980469 21.683594 11.984375 21.59375 L 13.945312 21.882812 L 13.945312 23.621094 L 9.871094 21.277344 Z M 14.851562 24.761719 C 14.808594 24.824219 14.753906 24.875 14.6875 24.914062 C 14.667969 24.929688 14.640625 24.941406 14.617188 24.949219 L 14.824219 25.070312 L 15.070312 24.929688 C 15.042969 24.917969 15.019531 24.90625 15 24.894531 C 14.941406 24.859375 14.890625 24.8125 14.851562 24.761719 M 15.265625 3.066406 C 14.992188 2.90625 14.660156 2.90625 14.382812 3.066406 L 5.121094 8.394531 C 4.839844 8.554688 4.664062 8.859375 4.664062 9.1875 L 4.664062 19.84375 C 4.664062 20.171875 4.839844 20.476562 5.121094 20.636719 L 14.382812 25.96875 C 14.660156 26.125 14.992188 26.125 15.265625 25.96875 L 24.53125 20.636719 C 24.8125 20.476562 24.988281 20.171875 24.988281 19.84375 L 24.988281 9.1875 C 24.988281 8.859375 24.8125 8.554688 24.53125 8.394531 Z M 15.265625 3.066406 " fill-opacity="1" fill-rule="evenodd"/></g><g clip-path="url(#3d38e00871)"><path fill="#ffffff" d="M 15.019531 3.710938 C 14.898438 3.644531 14.753906 3.644531 14.632812 3.710938 L 5.542969 8.9375 C 5.421875 9.011719 5.34375 9.144531 5.34375 9.289062 L 5.34375 19.742188 C 5.34375 19.886719 5.421875 20.023438 5.542969 20.09375 L 14.632812 25.320312 C 14.753906 25.390625 14.898438 25.390625 15.019531 25.320312 L 24.109375 20.09375 C 24.230469 20.023438 24.308594 19.886719 24.308594 19.742188 L 24.308594 9.289062 C 24.308594 9.144531 24.230469 9.011719 24.109375 8.9375 Z M 15.019531 3.710938 " fill-opacity="1" fill-rule="evenodd"/></g><path fill="#282211" d="M 7.125 9.3125 L 11.734375 6.660156 C 11.734375 6.660156 9.324219 8.636719 8.648438 9.433594 Z M 14.839844 5.199219 C 14.667969 6.691406 12.46875 8.632812 12.558594 10.636719 L 10.226562 10.613281 C 11.296875 9.355469 14.023438 6.144531 14.832031 5.191406 Z M 6.386719 9.023438 C 6.292969 9.078125 6.234375 9.175781 6.230469 9.285156 C 6.226562 9.390625 6.28125 9.496094 6.371094 9.554688 L 8.527344 10.972656 C 8.65625 11.054688 8.824219 11.03125 8.925781 10.914062 L 13.347656 5.710938 C 13.445312 5.597656 13.445312 5.425781 13.351562 5.3125 C 13.257812 5.195312 13.09375 5.164062 12.964844 5.238281 Z M 6.441406 15.425781 L 6.441406 10.558594 C 6.441406 10.558594 6.859375 11.558594 7.308594 11.855469 Z M 5.828125 17.101562 C 5.828125 17.25 5.933594 17.378906 6.078125 17.40625 C 6.222656 17.433594 6.367188 17.351562 6.417969 17.210938 L 8.570312 11.511719 C 8.621094 11.375 8.570312 11.21875 8.449219 11.140625 L 6.300781 9.726562 C 6.207031 9.664062 6.085938 9.660156 5.988281 9.714844 C 5.890625 9.769531 5.828125 9.875 5.828125 9.988281 Z M 8.980469 12.667969 C 9.273438 13.144531 8.914062 15.402344 9.878906 16.980469 C 11.023438 18.855469 13.484375 20.046875 13.484375 20.046875 C 13.484375 20.046875 8.074219 19.242188 6.582031 19.019531 Z M 15.898438 21.53125 L 15.542969 21.582031 L 15.542969 23.332031 C 15.734375 22.765625 15.847656 22.164062 15.898438 21.53125 M 10.820312 20.996094 C 10.855469 21.019531 10.886719 21.039062 10.914062 21.0625 C 10.953125 21.097656 11.003906 21.117188 11.058594 21.125 C 11.058594 21.125 11.992188 21.46875 12.777344 21.585938 L 14.144531 23.757812 C 13.125 23.175781 10.636719 21.742188 9.046875 20.828125 L 10.589844 21.058594 C 10.675781 21.070312 10.757812 21.046875 10.820312 20.996094 M 14.699219 25 L 5.695312 19.824219 C 5.664062 19.808594 5.648438 19.777344 5.648438 19.742188 L 5.648438 9.289062 C 5.648438 9.257812 5.664062 9.226562 5.695312 9.210938 L 14.78125 3.980469 C 14.808594 3.964844 14.84375 3.964844 14.871094 3.980469 L 14.988281 4.050781 C 14.96875 4.167969 14.953125 4.292969 14.933594 4.425781 C 14.902344 4.414062 14.867188 4.40625 14.832031 4.40625 C 14.746094 4.40625 14.660156 4.445312 14.601562 4.515625 L 9.328125 10.71875 C 9.25 10.8125 9.234375 10.941406 9.28125 11.050781 C 9.332031 11.164062 9.441406 11.234375 9.558594 11.234375 L 14.664062 11.234375 C 14.667969 11.292969 14.671875 11.355469 14.675781 11.417969 L 9.695312 11.417969 C 9.585938 11.417969 9.484375 11.476562 9.429688 11.578125 C 9.375 11.675781 9.378906 11.796875 9.4375 11.890625 L 11.453125 15.195312 C 11.414062 15.230469 11.363281 15.273438 11.316406 15.316406 C 10.757812 14.402344 9.175781 11.808594 9.175781 11.808594 C 9.113281 11.707031 9 11.652344 8.886719 11.664062 C 8.769531 11.675781 8.671875 11.75 8.628906 11.863281 L 5.878906 19.160156 C 5.84375 19.25 5.851562 19.347656 5.898438 19.429688 C 5.945312 19.507812 6.027344 19.566406 6.117188 19.578125 L 9.972656 20.152344 C 9.953125 20.171875 9.933594 20.195312 9.917969 20.222656 C 9.902344 20.253906 9.890625 20.289062 9.882812 20.324219 L 7.519531 19.972656 C 7.375 19.953125 7.234375 20.039062 7.1875 20.179688 C 7.140625 20.320312 7.195312 20.476562 7.324219 20.550781 L 14.296875 24.558594 C 14.390625 24.613281 14.507812 24.613281 14.601562 24.558594 C 14.695312 24.503906 14.753906 24.402344 14.753906 24.289062 L 14.753906 21.316406 C 14.753906 21.164062 14.640625 21.03125 14.492188 21.011719 C 14.492188 21.011719 11.71875 20.597656 11.222656 20.523438 C 11.109375 20.445312 10.964844 20.359375 10.773438 20.269531 L 14.046875 20.757812 C 14.164062 20.777344 14.28125 20.722656 14.34375 20.621094 C 14.410156 20.519531 14.410156 20.390625 14.347656 20.289062 L 11.710938 15.960938 C 11.746094 15.90625 11.78125 15.84375 11.816406 15.789062 L 14.648438 20.429688 C 14.703125 20.519531 14.800781 20.574219 14.90625 20.574219 C 15.011719 20.574219 15.109375 20.519531 15.167969 20.429688 L 15.871094 19.273438 C 15.882812 19.375 15.890625 19.480469 15.898438 19.582031 L 15.480469 20.265625 C 15.417969 20.367188 15.417969 20.496094 15.484375 20.597656 C 15.550781 20.699219 15.667969 20.75 15.785156 20.734375 L 15.9375 20.710938 C 15.933594 20.773438 15.933594 20.835938 15.933594 20.898438 L 15.195312 21.007812 C 15.042969 21.03125 14.933594 21.160156 14.933594 21.316406 L 14.933594 24.269531 C 14.933594 24.355469 14.96875 24.433594 15.023438 24.492188 C 14.925781 24.664062 14.816406 24.835938 14.699219 25 " fill-opacity="1" fill-rule="evenodd"/><path fill="#282211" d="M 13.007812 15.679688 C 13.007812 15.296875 13.195312 14.96875 13.570312 14.695312 C 13.945312 14.421875 14.136719 14.191406 14.136719 14 L 14.136719 13.339844 C 14.136719 13.148438 14.050781 13.050781 13.875 13.050781 L 13.871094 13.050781 C 13.695312 13.050781 13.609375 13.148438 13.609375 13.339844 L 13.609375 13.910156 L 13.007812 13.910156 L 13.007812 13.339844 C 13.007812 12.742188 13.292969 12.445312 13.871094 12.445312 C 14.449219 12.445312 14.738281 12.742188 14.738281 13.339844 L 14.738281 14.015625 C 14.738281 14.40625 14.550781 14.738281 14.175781 15.011719 C 13.796875 15.285156 13.609375 15.527344 13.609375 15.734375 L 13.609375 16.164062 L 14.738281 16.164062 L 14.738281 16.769531 L 13.007812 16.769531 Z M 13.007812 15.679688 " fill-opacity="1" fill-rule="nonzero"/><path fill="#282211" d="M 16.402344 13.339844 C 16.402344 13.148438 16.316406 13.050781 16.140625 13.050781 L 16.136719 13.050781 C 15.964844 13.050781 15.875 13.148438 15.875 13.339844 L 15.875 15.941406 C 15.875 16.132812 15.964844 16.230469 16.140625 16.230469 C 16.316406 16.230469 16.402344 16.132812 16.402344 15.941406 Z M 17.007812 15.941406 C 17.007812 16.539062 16.71875 16.835938 16.140625 16.835938 C 15.5625 16.835938 15.273438 16.539062 15.273438 15.941406 L 15.273438 13.339844 C 15.273438 12.742188 15.5625 12.445312 16.140625 12.445312 C 16.71875 12.445312 17.007812 12.742188 17.007812 13.339844 Z M 17.007812 15.941406 " fill-opacity="1" fill-rule="nonzero"/><g clip-path="url(#844ac141ce)"><path fill="#282211" d="M 6.535156 9.292969 L 8.695312 10.710938 L 13.117188 5.507812 Z M 20.972656 10.710938 L 23.125 9.296875 L 16.5625 5.523438 Z M 9.558594 10.921875 L 20.105469 10.921875 L 14.832031 4.71875 Z M 21.382812 11.398438 L 23.519531 17.0625 L 23.519531 9.996094 Z M 6.132812 17.101562 L 8.285156 11.398438 L 6.132812 9.988281 Z M 18.492188 14.390625 L 20.117188 11.726562 L 9.695312 11.726562 L 14.90625 20.265625 L 18.40625 14.53125 C 18.269531 14.269531 18.207031 14.097656 18.207031 14.097656 C 18.3125 14.199219 18.40625 14.296875 18.492188 14.390625 M 19.003906 15.082031 C 19.253906 15.519531 19.242188 15.765625 19.242188 15.765625 C 18.929688 15.40625 18.695312 15.050781 18.527344 14.757812 C 18.589844 15.113281 18.675781 15.339844 18.78125 15.441406 L 15.738281 20.425781 L 23.503906 19.273438 L 20.808594 12.121094 Z M 11.175781 15.675781 L 8.914062 11.972656 L 6.164062 19.273438 L 14.089844 20.453125 L 11.34375 15.949219 C 11.449219 15.839844 11.683594 15.40625 11.683594 15.40625 L 11.675781 15.410156 C 11.121094 16.203125 10.421875 16.550781 10.421875 16.550781 C 10.65625 16.136719 10.9375 15.859375 11.175781 15.675781 M 15.238281 21.316406 L 15.238281 24.269531 L 22.171875 20.28125 Z M 10.445312 20.722656 L 7.476562 20.28125 L 14.449219 24.289062 L 14.449219 21.316406 L 11.101562 20.820312 C 10.96875 20.714844 10.773438 20.597656 10.480469 20.480469 C 11.042969 20.90625 11.554688 21.4375 11.554688 21.4375 C 11.179688 21.28125 10.777344 20.996094 10.445312 20.722656 M 15.019531 3.710938 C 14.898438 3.644531 14.753906 3.644531 14.632812 3.710938 L 5.542969 8.9375 C 5.421875 9.011719 5.34375 9.144531 5.34375 9.289062 L 5.34375 19.742188 C 5.34375 19.886719 5.421875 20.023438 5.542969 20.09375 L 14.632812 25.320312 C 14.753906 25.390625 14.898438 25.390625 15.019531 25.320312 L 24.109375 20.09375 C 24.230469 20.023438 24.308594 19.886719 24.308594 19.742188 L 24.308594 9.289062 C 24.308594 9.144531 24.230469 9.011719 24.109375 8.9375 Z M 15.019531 3.710938 " fill-opacity="1" fill-rule="evenodd"/></g><g clip-path="url(#a2927c071f)"><path fill="#ffffff" d="M 24.023438 11.253906 C 24.027344 11.261719 24.035156 11.269531 24.042969 11.273438 L 24.054688 11.285156 L 24.0625 11.289062 L 24.066406 11.289062 L 24.074219 11.296875 L 24.078125 11.296875 C 24.097656 11.304688 24.117188 11.308594 24.136719 11.3125 L 24.164062 11.3125 C 24.183594 11.308594 24.203125 11.304688 24.21875 11.296875 L 24.222656 11.296875 L 24.226562 11.292969 L 24.230469 11.292969 L 24.234375 11.289062 L 24.238281 11.289062 L 24.238281 11.285156 L 24.242188 11.285156 L 24.25 11.28125 L 24.257812 11.273438 L 24.261719 11.273438 C 24.265625 11.265625 24.273438 11.261719 24.277344 11.253906 L 29.226562 5.921875 C 29.25 5.898438 29.261719 5.871094 29.269531 5.839844 C 29.273438 5.820312 29.273438 5.800781 29.269531 5.777344 C 29.265625 5.761719 29.261719 5.742188 29.253906 5.726562 L 29.25 5.722656 C 29.246094 5.710938 29.234375 5.699219 29.226562 5.6875 L 24.308594 0.390625 C 24.277344 0.335938 24.222656 0.300781 24.15625 0.300781 C 24.15625 0.300781 24.152344 0.300781 24.152344 0.300781 L 24.148438 0.300781 C 24.101562 0.300781 24.054688 0.320312 24.023438 0.355469 L 19.074219 5.691406 C 19.011719 5.753906 19.011719 5.855469 19.074219 5.921875 Z M 24.023438 11.253906 " fill-opacity="1" fill-rule="evenodd"/></g><g clip-path="url(#346f0b32f3)"><path fill="#ffffff" d="M 19.371094 5.804688 L 24.148438 10.957031 L 28.929688 5.804688 L 24.148438 0.65625 Z M 24.390625 11.542969 L 24.394531 11.539062 L 24.398438 11.539062 L 24.402344 11.535156 C 24.40625 11.535156 24.40625 11.53125 24.410156 11.53125 L 24.414062 11.527344 C 24.417969 11.527344 24.417969 11.523438 24.421875 11.523438 L 24.425781 11.519531 C 24.429688 11.515625 24.433594 11.515625 24.433594 11.511719 L 24.4375 11.511719 C 24.441406 11.507812 24.445312 11.507812 24.445312 11.503906 L 24.449219 11.503906 C 24.449219 11.503906 24.449219 11.503906 24.449219 11.5 C 24.46875 11.488281 24.484375 11.472656 24.5 11.457031 C 24.554688 11.394531 29.445312 6.125 29.445312 6.125 C 29.507812 6.058594 29.542969 5.980469 29.5625 5.902344 C 29.574219 5.847656 29.574219 5.789062 29.566406 5.730469 C 29.554688 5.679688 29.539062 5.632812 29.515625 5.585938 L 29.515625 5.582031 C 29.496094 5.546875 29.472656 5.515625 29.445312 5.484375 C 29.445312 5.488281 24.863281 0.550781 24.542969 0.207031 C 24.460938 0.0859375 24.316406 0.00390625 24.15625 0.00390625 L 24.148438 0.00390625 C 24.019531 0.00390625 23.890625 0.0585938 23.804688 0.15625 L 18.855469 5.488281 C 18.6875 5.667969 18.6875 5.945312 18.855469 6.125 C 18.855469 6.125 23.746094 11.394531 23.800781 11.457031 C 23.820312 11.472656 23.835938 11.492188 23.855469 11.507812 L 23.859375 11.507812 L 23.863281 11.511719 C 23.863281 11.511719 23.867188 11.515625 23.867188 11.515625 L 23.871094 11.519531 C 23.871094 11.519531 23.875 11.519531 23.875 11.523438 L 23.878906 11.523438 C 23.882812 11.527344 23.886719 11.527344 23.886719 11.527344 L 23.894531 11.535156 C 23.894531 11.535156 23.945312 11.566406 23.898438 11.535156 L 23.902344 11.539062 C 23.90625 11.539062 23.910156 11.542969 23.910156 11.542969 L 23.914062 11.546875 C 23.917969 11.546875 23.921875 11.550781 23.925781 11.550781 L 23.929688 11.554688 C 23.933594 11.554688 23.933594 11.558594 23.9375 11.558594 L 23.941406 11.5625 C 23.945312 11.5625 23.949219 11.5625 23.949219 11.566406 L 23.953125 11.566406 C 23.957031 11.566406 23.957031 11.566406 23.957031 11.566406 C 24.007812 11.589844 24.058594 11.601562 24.113281 11.605469 C 24.113281 11.605469 24.117188 11.605469 24.117188 11.605469 L 24.121094 11.609375 C 24.125 11.609375 24.125 11.609375 24.128906 11.609375 L 24.132812 11.609375 C 24.132812 11.609375 24.136719 11.609375 24.136719 11.609375 L 24.144531 11.609375 C 24.144531 11.609375 24.148438 11.609375 24.152344 11.609375 L 24.15625 11.609375 C 24.15625 11.609375 24.160156 11.609375 24.164062 11.609375 L 24.167969 11.609375 C 24.171875 11.609375 24.175781 11.609375 24.179688 11.609375 L 24.183594 11.605469 C 24.183594 11.605469 24.292969 11.589844 24.34375 11.566406 L 24.347656 11.566406 C 24.351562 11.5625 24.351562 11.5625 24.355469 11.5625 L 24.359375 11.558594 C 24.359375 11.558594 24.363281 11.558594 24.363281 11.558594 L 24.367188 11.554688 C 24.371094 11.554688 24.371094 11.554688 24.375 11.550781 L 24.378906 11.550781 C 24.382812 11.546875 24.382812 11.546875 24.386719 11.546875 Z M 24.390625 11.542969 " fill-opacity="1" fill-rule="evenodd"/></g><g clip-path="url(#95fcb9e9de)"><path fill="#ffffff" d="M 24.023438 11.253906 C 24.027344 11.261719 24.035156 11.269531 24.042969 11.273438 L 24.054688 11.285156 L 24.0625 11.289062 L 24.066406 11.289062 L 24.074219 11.296875 L 24.078125 11.296875 C 24.097656 11.304688 24.117188 11.308594 24.136719 11.3125 L 24.164062 11.3125 C 24.183594 11.308594 24.203125 11.304688 24.21875 11.296875 L 24.222656 11.296875 L 24.226562 11.292969 L 24.230469 11.292969 L 24.234375 11.289062 L 24.238281 11.289062 L 24.238281 11.285156 L 24.242188 11.285156 L 24.25 11.28125 L 24.257812 11.273438 L 24.261719 11.273438 C 24.265625 11.265625 24.273438 11.261719 24.277344 11.253906 L 29.226562 5.921875 C 29.25 5.898438 29.261719 5.871094 29.269531 5.839844 C 29.273438 5.820312 29.273438 5.800781 29.269531 5.777344 C 29.265625 5.761719 29.261719 5.742188 29.253906 5.726562 L 29.25 5.722656 C 29.246094 5.710938 29.234375 5.699219 29.226562 5.6875 L 24.308594 0.390625 C 24.277344 0.335938 24.222656 0.300781 24.15625 0.300781 C 24.15625 0.300781 24.152344 0.300781 24.152344 0.300781 L 24.148438 0.300781 C 24.101562 0.300781 24.054688 0.320312 24.023438 0.355469 L 19.074219 5.691406 C 19.011719 5.753906 19.011719 5.855469 19.074219 5.921875 Z M 24.023438 11.253906 " fill-opacity="1" fill-rule="evenodd"/></g><path fill="#282211" d="M 23.300781 8.699219 C 23.300781 8.699219 23.554688 9.019531 24.148438 9.046875 L 24.152344 9.046875 C 24.746094 9.019531 25 8.699219 25 8.699219 L 24.148438 10.449219 Z M 23.300781 8.699219 " fill-opacity="1" fill-rule="evenodd"/><path fill="#282211" d="M 27.167969 6.738281 L 28.0625 6.445312 L 25.820312 8.898438 Z M 27.167969 6.738281 " fill-opacity="1" fill-rule="evenodd"/><path fill="#282211" d="M 21.1875 6.738281 L 20.292969 6.445312 L 22.539062 8.898438 Z M 21.1875 6.738281 " fill-opacity="1" fill-rule="evenodd"/><path fill="#282211" d="M 23.804688 4.074219 C 23.769531 3.789062 23.613281 3.660156 23.515625 3.558594 C 23.785156 3.019531 23.804688 2.648438 23.804688 2.648438 Z M 23.804688 4.828125 L 23.054688 5.191406 C 23.066406 5.183594 23.074219 5.175781 23.085938 5.164062 C 23.292969 4.96875 23.722656 4.550781 23.804688 4.246094 Z M 25.3125 5.234375 L 24.480469 4.828125 L 24.480469 2.648438 C 24.480469 2.648438 24.507812 3.050781 24.75 3.558594 C 24.667969 3.65625 24.578125 3.773438 24.546875 3.859375 C 24.472656 4.042969 24.5 4.488281 24.671875 4.609375 C 24.84375 4.726562 25.003906 4.816406 25.003906 4.816406 C 25.003906 4.816406 25.160156 5.054688 25.3125 5.234375 M 26.3125 5.121094 C 26.84375 5.386719 27.53125 5.578125 28.417969 5.621094 L 26.847656 5.984375 L 25.609375 5.378906 C 25.851562 5.382812 26.183594 5.265625 26.3125 5.121094 M 21.902344 5.152344 C 21.925781 5.207031 21.964844 5.257812 22.023438 5.304688 C 22.1875 5.4375 22.363281 5.472656 22.53125 5.449219 L 21.433594 5.984375 L 19.863281 5.621094 C 20.714844 5.578125 21.378906 5.402344 21.902344 5.152344 " fill-opacity="1" fill-rule="evenodd"/><g clip-path="url(#2fd274c844)"><path fill="#282211" d="M 26.953125 6.1875 L 28.777344 5.710938 L 24.328125 0.921875 L 24.324219 4.960938 L 26.945312 6.1875 C 26.949219 6.1875 26.949219 6.1875 26.953125 6.1875 M 19.527344 5.710938 L 21.398438 6.199219 L 23.976562 4.960938 L 23.980469 0.910156 Z M 23.265625 9.929688 L 21.339844 6.539062 L 19.726562 6.117188 Z M 26.953125 6.546875 L 25.035156 9.933594 L 28.570312 6.125 Z M 24.148438 10.789062 C 24.148438 10.789062 22.136719 7.246094 21.683594 6.445312 C 21.683594 6.445312 23.730469 5.460938 24.152344 5.261719 C 24.515625 5.429688 26.101562 6.171875 26.628906 6.417969 Z M 24.023438 11.253906 C 24.027344 11.261719 24.035156 11.269531 24.042969 11.273438 L 24.042969 11.277344 L 24.046875 11.277344 C 24.050781 11.28125 24.050781 11.28125 24.050781 11.28125 L 24.054688 11.28125 C 24.054688 11.28125 24.054688 11.285156 24.054688 11.285156 C 24.058594 11.285156 24.058594 11.285156 24.058594 11.285156 L 24.0625 11.289062 L 24.066406 11.289062 L 24.066406 11.292969 L 24.074219 11.292969 L 24.074219 11.296875 L 24.078125 11.296875 C 24.097656 11.304688 24.117188 11.308594 24.136719 11.3125 L 24.164062 11.3125 C 24.183594 11.308594 24.203125 11.304688 24.21875 11.296875 L 24.226562 11.296875 L 24.226562 11.292969 L 24.230469 11.292969 C 24.230469 11.292969 24.234375 11.289062 24.234375 11.289062 C 24.238281 11.289062 24.238281 11.289062 24.238281 11.289062 L 24.238281 11.285156 C 24.242188 11.285156 24.242188 11.285156 24.242188 11.285156 L 24.246094 11.285156 C 24.246094 11.285156 24.246094 11.28125 24.246094 11.28125 L 24.25 11.28125 L 24.25 11.277344 L 24.257812 11.277344 L 24.257812 11.273438 L 24.261719 11.273438 C 24.265625 11.265625 24.273438 11.261719 24.277344 11.253906 L 29.226562 5.921875 C 29.25 5.898438 29.261719 5.871094 29.269531 5.839844 C 29.273438 5.820312 29.273438 5.800781 29.269531 5.777344 C 29.265625 5.761719 29.261719 5.742188 29.253906 5.726562 L 29.25 5.722656 C 29.246094 5.710938 29.234375 5.699219 29.226562 5.6875 L 24.308594 0.390625 C 24.277344 0.335938 24.222656 0.300781 24.15625 0.300781 L 24.148438 0.300781 C 24.101562 0.300781 24.054688 0.320312 24.023438 0.355469 L 19.074219 5.691406 C 19.011719 5.753906 19.011719 5.855469 19.074219 5.921875 Z M 24.023438 11.253906 " fill-opacity="1" fill-rule="evenodd"/></g><path fill="#282211" d="M 22.207031 3.109375 C 22.390625 2.914062 22.578125 2.910156 22.773438 3.089844 C 22.96875 3.269531 22.972656 3.457031 22.789062 3.652344 L 22.027344 4.457031 C 21.847656 4.648438 21.65625 4.65625 21.464844 4.472656 C 21.269531 4.292969 21.265625 4.105469 21.445312 3.914062 L 21.628906 3.722656 L 21.851562 3.933594 L 21.671875 4.121094 C 21.625 4.171875 21.621094 4.21875 21.667969 4.257812 L 21.667969 4.261719 C 21.710938 4.300781 21.757812 4.296875 21.804688 4.246094 L 22.074219 3.960938 C 22.039062 3.960938 21.988281 3.933594 21.933594 3.878906 C 21.921875 3.871094 21.914062 3.859375 21.90625 3.851562 C 21.84375 3.78125 21.816406 3.710938 21.816406 3.636719 C 21.816406 3.558594 21.867188 3.46875 21.960938 3.371094 Z M 22.566406 3.441406 C 22.613281 3.390625 22.613281 3.347656 22.570312 3.304688 C 22.527344 3.261719 22.480469 3.269531 22.433594 3.316406 L 22.183594 3.578125 C 22.144531 3.621094 22.132812 3.652344 22.140625 3.667969 C 22.144531 3.679688 22.15625 3.695312 22.175781 3.714844 C 22.183594 3.71875 22.1875 3.726562 22.195312 3.730469 C 22.230469 3.761719 22.269531 3.753906 22.316406 3.703125 Z M 22.566406 3.441406 " fill-opacity="1" fill-rule="nonzero"/><path fill="#282211" d="M 23.316406 4.144531 C 23.363281 4.09375 23.363281 4.046875 23.320312 4.003906 C 23.277344 3.964844 23.230469 3.96875 23.183594 4.019531 L 22.421875 4.824219 C 22.375 4.875 22.371094 4.917969 22.417969 4.960938 C 22.460938 5 22.507812 4.996094 22.554688 4.945312 Z M 22.777344 5.15625 C 22.597656 5.347656 22.410156 5.355469 22.214844 5.175781 C 22.019531 4.992188 22.015625 4.804688 22.199219 4.613281 L 22.957031 3.808594 C 23.140625 3.617188 23.328125 3.609375 23.523438 3.789062 C 23.71875 3.972656 23.722656 4.160156 23.539062 4.351562 Z M 22.777344 5.15625 " fill-opacity="1" fill-rule="nonzero"/><path fill="#282211" d="M 25.691406 4.945312 C 25.738281 4.996094 25.785156 5 25.832031 4.960938 C 25.875 4.921875 25.875 4.875 25.832031 4.820312 L 25.625 4.59375 C 25.585938 4.550781 25.554688 4.535156 25.535156 4.539062 C 25.523438 4.542969 25.507812 4.554688 25.484375 4.574219 C 25.480469 4.582031 25.472656 4.585938 25.46875 4.59375 C 25.433594 4.625 25.4375 4.667969 25.484375 4.71875 Z M 25.257812 4.921875 C 25.175781 4.832031 25.148438 4.742188 25.183594 4.65625 C 25.09375 4.679688 25.003906 4.644531 24.921875 4.550781 L 24.722656 4.332031 C 24.542969 4.132812 24.550781 3.945312 24.75 3.769531 C 24.945312 3.59375 25.136719 3.601562 25.3125 3.800781 L 25.511719 4.019531 C 25.597656 4.113281 25.625 4.203125 25.589844 4.289062 C 25.679688 4.265625 25.765625 4.300781 25.851562 4.390625 L 26.058594 4.617188 C 26.234375 4.816406 26.226562 5 26.03125 5.179688 C 25.832031 5.355469 25.644531 5.347656 25.464844 5.148438 Z M 25.144531 4.347656 C 25.195312 4.398438 25.242188 4.40625 25.289062 4.363281 C 25.335938 4.320312 25.332031 4.273438 25.285156 4.222656 L 25.085938 4.003906 C 25.039062 3.953125 24.992188 3.949219 24.949219 3.988281 C 24.902344 4.027344 24.902344 4.074219 24.949219 4.128906 Z M 25.144531 4.347656 " fill-opacity="1" fill-rule="nonzero"/><path fill="#282211" d="M 25.851562 3.320312 C 25.804688 3.269531 25.757812 3.261719 25.710938 3.300781 L 25.710938 3.304688 C 25.667969 3.34375 25.667969 3.390625 25.714844 3.441406 L 26.457031 4.257812 C 26.503906 4.3125 26.550781 4.316406 26.59375 4.277344 C 26.640625 4.234375 26.640625 4.191406 26.59375 4.136719 Z M 26.820312 3.933594 C 27 4.128906 26.992188 4.316406 26.792969 4.492188 C 26.597656 4.671875 26.40625 4.660156 26.230469 4.464844 L 25.484375 3.644531 C 25.308594 3.449219 25.316406 3.261719 25.511719 3.085938 C 25.710938 2.90625 25.898438 2.917969 26.078125 3.113281 Z M 26.820312 3.933594 " fill-opacity="1" fill-rule="nonzero"/><path fill="#282211" d="M 23.632812 6.570312 C 23.632812 6.488281 23.597656 6.449219 23.527344 6.449219 L 23.523438 6.449219 C 23.453125 6.449219 23.417969 6.488281 23.417969 6.570312 L 23.417969 7.886719 C 23.417969 7.96875 23.453125 8.007812 23.527344 8.007812 C 23.597656 8.007812 23.632812 7.96875 23.632812 7.886719 Z M 24 7.886719 C 24 8.199219 23.84375 8.359375 23.527344 8.359375 C 23.207031 8.359375 23.050781 8.199219 23.050781 7.886719 L 23.050781 6.570312 C 23.050781 6.253906 23.207031 6.097656 23.527344 6.097656 C 23.84375 6.097656 24 6.253906 24 6.570312 Z M 24 7.886719 " fill-opacity="1" fill-rule="nonzero"/><path fill="#282211" d="M 24.847656 6.570312 C 24.847656 6.488281 24.8125 6.449219 24.742188 6.449219 L 24.738281 6.449219 C 24.667969 6.449219 24.632812 6.488281 24.632812 6.570312 L 24.632812 7.886719 C 24.632812 7.96875 24.667969 8.007812 24.738281 8.007812 C 24.8125 8.007812 24.847656 7.96875 24.847656 7.886719 Z M 25.214844 7.886719 C 25.214844 8.199219 25.058594 8.359375 24.738281 8.359375 C 24.421875 8.359375 24.265625 8.199219 24.265625 7.886719 L 24.265625 6.570312 C 24.265625 6.253906 24.421875 6.097656 24.738281 6.097656 C 25.058594 6.097656 25.214844 6.253906 25.214844 6.570312 Z M 25.214844 7.886719 " fill-opacity="1" fill-rule="nonzero"/><g clip-path="url(#87817ad24b)"><path fill="#ffffff" d="M 5.816406 28.675781 C 5.824219 28.683594 5.832031 28.6875 5.839844 28.695312 L 5.84375 28.699219 L 5.847656 28.699219 L 5.855469 28.707031 L 5.863281 28.710938 L 5.867188 28.710938 L 5.871094 28.714844 L 5.875 28.714844 C 5.894531 28.722656 5.914062 28.730469 5.933594 28.730469 L 5.960938 28.730469 C 5.980469 28.730469 6 28.722656 6.015625 28.714844 L 6.023438 28.714844 L 6.03125 28.707031 L 6.035156 28.707031 L 6.039062 28.703125 L 6.046875 28.699219 L 6.050781 28.699219 L 6.058594 28.691406 C 6.0625 28.6875 6.070312 28.679688 6.074219 28.675781 L 11.023438 23.34375 C 11.046875 23.320312 11.058594 23.289062 11.066406 23.261719 C 11.070312 23.242188 11.070312 23.21875 11.066406 23.199219 C 11.0625 23.179688 11.058594 23.160156 11.046875 23.144531 C 11.042969 23.128906 11.03125 23.117188 11.023438 23.109375 L 6.105469 17.808594 C 6.074219 17.753906 6.019531 17.71875 5.953125 17.71875 C 5.953125 17.71875 5.949219 17.71875 5.949219 17.71875 C 5.949219 17.71875 5.949219 17.71875 5.945312 17.71875 C 5.898438 17.71875 5.851562 17.742188 5.820312 17.777344 L 0.871094 23.109375 C 0.808594 23.175781 0.808594 23.277344 0.871094 23.34375 Z M 5.816406 28.675781 " fill-opacity="1" fill-rule="evenodd"/></g><g clip-path="url(#6d8db5076a)"><path fill="#ffffff" d="M 1.167969 23.226562 L 5.945312 28.375 L 10.726562 23.226562 L 5.945312 18.074219 Z M 6.1875 28.964844 L 6.199219 28.953125 C 6.203125 28.953125 6.203125 28.953125 6.207031 28.949219 L 6.210938 28.945312 C 6.214844 28.945312 6.214844 28.945312 6.21875 28.941406 L 6.222656 28.9375 C 6.226562 28.9375 6.230469 28.933594 6.230469 28.933594 L 6.234375 28.929688 C 6.238281 28.925781 6.238281 28.925781 6.242188 28.925781 L 6.246094 28.921875 C 6.261719 28.90625 11.242188 23.542969 11.242188 23.542969 C 11.300781 23.480469 11.339844 23.402344 11.359375 23.320312 C 11.371094 23.265625 11.371094 23.207031 11.363281 23.148438 C 11.351562 23.101562 11.335938 23.050781 11.3125 23.003906 C 11.292969 22.96875 11.269531 22.933594 11.242188 22.90625 C 11.242188 22.90625 6.660156 17.96875 6.339844 17.625 C 6.253906 17.503906 6.113281 17.425781 5.953125 17.421875 L 5.945312 17.421875 C 5.816406 17.421875 5.6875 17.480469 5.597656 17.574219 L 0.652344 22.90625 C 0.484375 23.085938 0.484375 23.363281 0.652344 23.542969 C 0.652344 23.542969 5.542969 28.8125 5.597656 28.875 C 5.613281 28.894531 5.632812 28.910156 5.652344 28.925781 L 5.65625 28.929688 L 5.660156 28.929688 L 5.667969 28.9375 C 5.667969 28.9375 5.671875 28.941406 5.671875 28.941406 L 5.675781 28.945312 C 5.679688 28.945312 5.679688 28.945312 5.683594 28.949219 L 5.6875 28.949219 L 5.691406 28.953125 C 5.691406 28.953125 5.742188 28.984375 5.695312 28.957031 L 5.699219 28.957031 C 5.703125 28.960938 5.703125 28.960938 5.707031 28.964844 L 5.710938 28.964844 C 5.714844 28.96875 5.71875 28.96875 5.722656 28.96875 L 5.726562 28.972656 C 5.726562 28.976562 5.730469 28.976562 5.734375 28.976562 L 5.738281 28.980469 C 5.742188 28.980469 5.746094 28.984375 5.746094 28.984375 L 5.75 28.984375 C 5.753906 28.984375 5.753906 28.988281 5.753906 28.988281 C 5.804688 29.007812 5.855469 29.023438 5.910156 29.027344 C 5.910156 29.027344 5.914062 29.027344 5.914062 29.027344 L 5.917969 29.027344 C 5.921875 29.027344 5.921875 29.027344 5.925781 29.027344 L 5.929688 29.027344 C 5.929688 29.027344 5.933594 29.027344 5.933594 29.027344 L 5.9375 29.027344 C 5.941406 29.027344 5.945312 29.027344 5.945312 29.027344 L 5.953125 29.027344 C 5.953125 29.027344 5.957031 29.027344 5.960938 29.027344 L 5.964844 29.027344 C 5.96875 29.027344 5.972656 29.027344 5.976562 29.027344 L 5.980469 29.027344 C 5.980469 29.027344 5.980469 29.027344 5.984375 29.027344 C 6.039062 29.023438 6.089844 29.007812 6.136719 28.988281 C 6.140625 28.988281 6.140625 28.988281 6.140625 28.984375 L 6.144531 28.984375 C 6.144531 28.984375 6.148438 28.984375 6.152344 28.980469 L 6.15625 28.980469 C 6.15625 28.980469 6.160156 28.976562 6.160156 28.976562 L 6.164062 28.972656 C 6.167969 28.972656 6.167969 28.972656 6.171875 28.972656 L 6.175781 28.96875 C 6.179688 28.96875 6.179688 28.964844 6.183594 28.964844 L 6.1875 28.960938 Z M 6.1875 28.964844 " fill-opacity="1" fill-rule="evenodd"/></g><g clip-path="url(#558a58162a)"><path fill="#ffffff" d="M 5.816406 28.675781 C 5.824219 28.683594 5.832031 28.6875 5.839844 28.695312 L 5.84375 28.699219 L 5.847656 28.699219 L 5.855469 28.707031 L 5.863281 28.710938 L 5.867188 28.710938 L 5.871094 28.714844 L 5.875 28.714844 C 5.894531 28.722656 5.914062 28.730469 5.933594 28.730469 L 5.960938 28.730469 C 5.980469 28.730469 6 28.722656 6.015625 28.714844 L 6.023438 28.714844 L 6.03125 28.707031 L 6.035156 28.707031 L 6.039062 28.703125 L 6.046875 28.699219 L 6.050781 28.699219 L 6.058594 28.691406 C 6.0625 28.6875 6.070312 28.679688 6.074219 28.675781 L 11.023438 23.34375 C 11.046875 23.320312 11.058594 23.289062 11.066406 23.261719 C 11.070312 23.242188 11.070312 23.21875 11.066406 23.199219 C 11.0625 23.179688 11.058594 23.160156 11.046875 23.144531 C 11.042969 23.128906 11.03125 23.117188 11.023438 23.109375 L 6.105469 17.808594 C 6.074219 17.753906 6.019531 17.71875 5.953125 17.71875 C 5.953125 17.71875 5.949219 17.71875 5.949219 17.71875 C 5.949219 17.71875 5.949219 17.71875 5.945312 17.71875 C 5.898438 17.71875 5.851562 17.742188 5.820312 17.777344 L 0.871094 23.109375 C 0.808594 23.175781 0.808594 23.277344 0.871094 23.34375 Z M 5.816406 28.675781 " fill-opacity="1" fill-rule="evenodd"/></g><path fill="#282211" d="M 1.660156 23.039062 L 3.230469 23.40625 L 5.601562 22.246094 L 5.601562 20.070312 C 5.601562 20.070312 5.386719 22.855469 1.660156 23.039062 " fill-opacity="1" fill-rule="evenodd"/><path fill="#282211" d="M 5.097656 26.121094 C 5.097656 26.121094 5.351562 26.441406 5.945312 26.46875 L 5.949219 26.46875 C 6.542969 26.4375 6.796875 26.121094 6.796875 26.121094 L 5.945312 27.871094 Z M 5.097656 26.121094 " fill-opacity="1" fill-rule="evenodd"/><path fill="#282211" d="M 8.964844 24.15625 L 9.859375 23.863281 L 7.617188 26.316406 Z M 8.964844 24.15625 " fill-opacity="1" fill-rule="evenodd"/><path fill="#282211" d="M 2.984375 24.15625 L 2.089844 23.863281 L 4.335938 26.316406 Z M 2.984375 24.15625 " fill-opacity="1" fill-rule="evenodd"/><path fill="#282211" d="M 10.214844 23.039062 L 8.644531 23.40625 L 6.277344 22.246094 L 6.277344 20.070312 C 6.277344 20.070312 6.488281 22.855469 10.214844 23.039062 " fill-opacity="1" fill-rule="evenodd"/><g clip-path="url(#7836f43249)"><path fill="#282211" d="M 8.75 23.609375 L 10.574219 23.132812 L 6.125 18.339844 L 6.121094 22.378906 L 8.742188 23.605469 C 8.742188 23.605469 8.746094 23.609375 8.75 23.609375 M 1.324219 23.128906 L 3.195312 23.617188 L 5.773438 22.382812 L 5.777344 18.328125 Z M 5.058594 27.351562 L 3.136719 23.960938 L 1.523438 23.539062 Z M 8.75 23.964844 L 6.828125 27.351562 L 10.367188 23.542969 Z M 5.945312 28.207031 C 5.945312 28.207031 3.933594 24.667969 3.480469 23.867188 C 3.480469 23.867188 5.527344 22.882812 5.949219 22.679688 C 6.3125 22.851562 7.898438 23.59375 8.425781 23.839844 Z M 5.816406 28.675781 C 5.824219 28.683594 5.832031 28.6875 5.839844 28.695312 L 5.84375 28.695312 L 5.84375 28.699219 C 5.84375 28.699219 5.847656 28.699219 5.847656 28.699219 L 5.847656 28.703125 C 5.851562 28.703125 5.851562 28.703125 5.851562 28.703125 C 5.855469 28.703125 5.855469 28.707031 5.855469 28.707031 L 5.859375 28.707031 L 5.863281 28.710938 L 5.867188 28.710938 L 5.867188 28.714844 L 5.875 28.714844 C 5.894531 28.722656 5.914062 28.730469 5.933594 28.730469 L 5.960938 28.730469 C 5.980469 28.730469 6 28.722656 6.015625 28.714844 L 6.023438 28.714844 L 6.023438 28.710938 L 6.027344 28.710938 C 6.027344 28.710938 6.03125 28.710938 6.03125 28.710938 L 6.03125 28.707031 C 6.035156 28.707031 6.035156 28.707031 6.035156 28.707031 C 6.039062 28.707031 6.039062 28.703125 6.039062 28.703125 L 6.042969 28.703125 L 6.042969 28.699219 L 6.050781 28.699219 L 6.050781 28.695312 L 6.054688 28.695312 L 6.054688 28.691406 L 6.058594 28.691406 C 6.0625 28.6875 6.070312 28.679688 6.074219 28.675781 L 11.023438 23.34375 C 11.046875 23.320312 11.058594 23.289062 11.066406 23.261719 C 11.070312 23.242188 11.070312 23.21875 11.066406 23.199219 C 11.0625 23.179688 11.058594 23.160156 11.046875 23.144531 C 11.042969 23.128906 11.03125 23.117188 11.023438 23.109375 L 6.105469 17.808594 C 6.074219 17.753906 6.019531 17.71875 5.953125 17.71875 C 5.953125 17.71875 5.949219 17.71875 5.949219 17.71875 C 5.949219 17.71875 5.949219 17.71875 5.945312 17.71875 C 5.898438 17.71875 5.851562 17.742188 5.820312 17.777344 L 0.871094 23.109375 C 0.808594 23.175781 0.808594 23.277344 0.871094 23.34375 Z M 5.816406 28.675781 " fill-opacity="1" fill-rule="evenodd"/></g><path fill="#282211" d="M 4.316406 20.546875 C 4.511719 20.300781 4.734375 20.277344 4.980469 20.472656 C 5.226562 20.664062 5.25 20.882812 5.054688 21.128906 L 4.238281 22.148438 C 4.042969 22.394531 3.824219 22.421875 3.578125 22.226562 C 3.332031 22.03125 3.304688 21.8125 3.5 21.566406 L 3.695312 21.324219 L 3.980469 21.550781 L 3.785156 21.792969 C 3.734375 21.855469 3.738281 21.910156 3.792969 21.953125 L 3.796875 21.957031 C 3.851562 22 3.902344 21.988281 3.957031 21.925781 L 4.246094 21.5625 C 4.199219 21.566406 4.140625 21.539062 4.070312 21.480469 C 4.058594 21.472656 4.046875 21.460938 4.035156 21.449219 C 3.957031 21.375 3.914062 21.292969 3.910156 21.203125 C 3.902344 21.113281 3.949219 21.007812 4.050781 20.878906 Z M 4.769531 20.90625 C 4.820312 20.839844 4.820312 20.785156 4.761719 20.742188 C 4.707031 20.699219 4.652344 20.707031 4.601562 20.773438 L 4.335938 21.105469 C 4.296875 21.15625 4.28125 21.191406 4.292969 21.214844 C 4.296875 21.226562 4.316406 21.242188 4.339844 21.261719 C 4.347656 21.269531 4.355469 21.273438 4.363281 21.28125 C 4.410156 21.3125 4.457031 21.300781 4.503906 21.238281 Z M 4.769531 20.90625 " fill-opacity="1" fill-rule="nonzero"/><path fill="#282211" d="M 7.863281 21.921875 C 7.910156 21.988281 7.964844 22 8.023438 21.960938 C 8.082031 21.921875 8.089844 21.867188 8.046875 21.800781 L 7.847656 21.5 C 7.808594 21.441406 7.777344 21.414062 7.753906 21.417969 C 7.738281 21.421875 7.71875 21.433594 7.6875 21.453125 C 7.679688 21.457031 7.671875 21.460938 7.664062 21.46875 C 7.617188 21.5 7.617188 21.550781 7.664062 21.621094 Z M 7.363281 21.820312 C 7.28125 21.695312 7.265625 21.585938 7.320312 21.492188 C 7.210938 21.503906 7.117188 21.445312 7.035156 21.324219 L 6.839844 21.03125 C 6.664062 20.769531 6.710938 20.554688 6.972656 20.382812 C 7.234375 20.210938 7.453125 20.253906 7.625 20.515625 L 7.820312 20.808594 C 7.902344 20.929688 7.917969 21.039062 7.863281 21.132812 C 7.972656 21.121094 8.066406 21.179688 8.148438 21.300781 L 8.347656 21.601562 C 8.523438 21.863281 8.476562 22.078125 8.214844 22.25 C 7.953125 22.421875 7.734375 22.378906 7.5625 22.117188 Z M 7.332031 21.125 C 7.378906 21.195312 7.433594 21.210938 7.496094 21.171875 C 7.558594 21.128906 7.566406 21.074219 7.519531 21.003906 L 7.324219 20.714844 C 7.277344 20.644531 7.226562 20.632812 7.164062 20.671875 C 7.105469 20.710938 7.097656 20.765625 7.140625 20.835938 Z M 7.332031 21.125 " fill-opacity="1" fill-rule="nonzero"/><path fill="#282211" d="M 5.515625 23.550781 L 5.515625 25.394531 L 5.808594 25.394531 L 5.808594 25.742188 L 4.859375 25.742188 L 4.859375 25.394531 L 5.148438 25.394531 L 5.148438 23.902344 L 4.859375 23.902344 L 4.859375 23.550781 Z M 5.515625 23.550781 " fill-opacity="1" fill-rule="nonzero"/><path fill="#282211" d="M 6.667969 23.992188 C 6.667969 23.910156 6.632812 23.867188 6.558594 23.867188 C 6.488281 23.867188 6.449219 23.910156 6.449219 23.992188 L 6.449219 25.304688 C 6.449219 25.386719 6.488281 25.429688 6.558594 25.429688 C 6.632812 25.429688 6.667969 25.386719 6.667969 25.304688 Z M 7.035156 25.304688 C 7.035156 25.621094 6.875 25.777344 6.558594 25.777344 C 6.242188 25.777344 6.085938 25.621094 6.085938 25.304688 L 6.085938 23.992188 C 6.085938 23.675781 6.242188 23.515625 6.558594 23.515625 C 6.875 23.515625 7.035156 23.675781 7.035156 23.992188 Z M 7.035156 25.304688 " fill-opacity="1" fill-rule="nonzero"/></svg>